<svg xmlns="http://www.w3.org/2000/svg" width="180" height="180" viewBox="0 0 180 180" role="img" aria-labelledby="title desc">
  <title id="title">ChessPique app icon</title>
  <desc id="desc">A stylized ivory chess knight over an analytical pulse line on a midnight indigo tile.</desc>
  <defs>
    <linearGradient id="tile" x1="20" y1="12" x2="160" y2="170" gradientUnits="userSpaceOnUse">
      <stop offset="0" stop-color="#11182f"/>
      <stop offset="0.58" stop-color="#1e2950"/>
      <stop offset="1" stop-color="#30245b"/>
    </linearGradient>
    <linearGradient id="pulse" x1="34" y1="146" x2="149" y2="146" gradientUnits="userSpaceOnUse">
      <stop offset="0" stop-color="#33d6c4"/>
      <stop offset="0.55" stop-color="#66e2d0"/>
      <stop offset="1" stop-color="#ffd166"/>
    </linearGradient>
    <filter id="shadow" x="-20%" y="-20%" width="140%" height="150%">
      <feDropShadow dx="0" dy="5" stdDeviation="5" flood-color="#070b19" flood-opacity="0.46"/>
    </filter>
    <clipPath id="tileClip">
      <rect x="4" y="4" width="172" height="172" rx="38"/>
    </clipPath>
  </defs>

  <rect x="4" y="4" width="172" height="172" rx="38" fill="url(#tile)"/>

  <g clip-path="url(#tileClip)" opacity="0.16" fill="#a8b4dd">
    <rect x="-8" y="19" width="28" height="28"/>
    <rect x="20" y="47" width="28" height="28"/>
    <rect x="132" y="19" width="28" height="28"/>
    <rect x="160" y="47" width="28" height="28"/>
    <rect x="-8" y="131" width="28" height="28"/>
    <rect x="160" y="131" width="28" height="28"/>
  </g>

  <path d="M34 147h27l12-13 14 21 15-16h44" fill="none" stroke="#08101f" stroke-opacity="0.45" stroke-width="11" stroke-linecap="round" stroke-linejoin="round"/>
  <path d="M34 147h27l12-13 14 21 15-16h44" fill="none" stroke="url(#pulse)" stroke-width="6" stroke-linecap="round" stroke-linejoin="round"/>
  <circle cx="146" cy="139" r="6.5" fill="#ffd166" stroke="#fff3c4" stroke-width="2"/>

  <g transform="translate(18 13) scale(6)" fill="none" stroke="#fbf7ed" stroke-width="1.72" stroke-linecap="round" stroke-linejoin="round" filter="url(#shadow)">
    <path d="M5 20a2 2 0 0 1 2-2h10a2 2 0 0 1 2 2v1a1 1 0 0 1-1 1H6a1 1 0 0 1-1-1Z"/>
    <path d="M16.5 18c1-2 2.5-5 2.5-9a7 7 0 0 0-7-7H6.635a1 1 0 0 0-.768 1.64L7 5l-2.32 5.802a2 2 0 0 0 .95 2.526l2.87 1.456"/>
    <path d="m15 5 1.425-1.425"/>
    <path d="m17 8 1.53-1.53"/>
    <path d="M9.713 12.185 7 18"/>
    <circle cx="10.2" cy="6.7" r="0.62" fill="#66e2d0" stroke="#10172c" stroke-width="0.38"/>
  </g>

  <rect x="4" y="4" width="172" height="172" rx="38" fill="none" stroke="#ffffff" stroke-opacity="0.13" stroke-width="2"/>
</svg>
